<svg width="56" height="56" viewBox="0 0 56 56" fill="none" xmlns="http://www.w3.org/2000/svg">
<path fill-rule="evenodd" clip-rule="evenodd" d="M7.67425 37.3214C5.24122 36.3136 2.6335 35.7949 0 35.7949V20.0537C4.70066 20.0537 9.35529 20.9796 13.6981 22.7784C18.041 24.5773 21.987 27.2139 25.3108 30.5378C28.6347 33.8617 31.2714 37.8077 33.0702 42.1505C34.8691 46.4934 35.7949 51.148 35.7949 55.8487H20.0538C20.0538 53.2152 19.5351 50.6074 18.5273 48.1744C17.5195 45.7414 16.0423 43.5306 14.1802 41.6685C12.318 39.8063 10.1073 38.3292 7.67425 37.3214Z" fill="#7880F1"/>
<path fill-rule="evenodd" clip-rule="evenodd" d="M48.1744 37.3214C50.6074 36.3136 53.2151 35.7949 55.8486 35.7949V20.0537C51.148 20.0537 46.4933 20.9796 42.1505 22.7784C37.8077 24.5773 33.8617 27.2139 30.5378 30.5378C27.2139 33.8617 24.5773 37.8077 22.7784 42.1505C20.9796 46.4934 20.0537 51.148 20.0537 55.8487H35.7948C35.7948 53.2152 36.3135 50.6074 37.3213 48.1744C38.3291 45.7414 39.8063 43.5306 41.6685 41.6685C43.5306 39.8063 45.7413 38.3292 48.1744 37.3214Z" fill="#FFF379"/>
<path fill-rule="evenodd" clip-rule="evenodd" d="M7.67425 18.5273C5.24122 19.5351 2.6335 20.0538 0 20.0538V35.7949C4.70066 35.7949 9.35529 34.8691 13.6981 33.0702C18.041 31.2713 21.987 28.6347 25.3108 25.3108C28.6347 21.987 31.2714 18.041 33.0702 13.6981C34.8691 9.35527 35.7949 4.70064 35.7949 -2.3365e-05H20.0538C20.0538 2.63348 19.5351 5.24119 18.5273 7.67423C17.5195 10.1073 16.0423 12.318 14.1802 14.1802C12.318 16.0423 10.1073 17.5195 7.67425 18.5273Z" fill="white"/>
<path fill-rule="evenodd" clip-rule="evenodd" d="M48.1744 18.5273C50.6074 19.5351 53.2151 20.0538 55.8486 20.0538V35.7949C51.148 35.7949 46.4933 34.8691 42.1505 33.0702C37.8077 31.2713 33.8617 28.6347 30.5378 25.3108C27.2139 21.987 24.5773 18.041 22.7784 13.6981C20.9796 9.35527 20.0537 4.70064 20.0537 -2.3365e-05H35.7948C35.7948 2.63348 36.3135 5.24119 37.3213 7.67423C38.3291 10.1073 39.8063 12.318 41.6685 14.1802C43.5306 16.0423 45.7413 17.5195 48.1744 18.5273Z" fill="#7BE9A5"/>
</svg>
