<svg
      width="280"
      height="188"
      viewBox="0 0 280 188"
      fill="none"
      xmlns="http://www.w3.org/2000/svg"
    >
      <path
        d="M0.367125 11.5169C-0.175857 12.1425 -0.108825 13.0899 0.516844 13.6329L10.7127 22.4813C11.3384 23.0243 12.2858 22.9573 12.8287 22.3316C13.3717 21.7059 13.3047 20.7585 12.679 20.2156L3.61603 12.3503L11.4813 3.28731C12.0243 2.66164 11.9572 1.71426 11.3316 1.17128C10.7059 0.628297 9.75851 0.695329 9.21553 1.321L0.367125 11.5169ZM1.60587 13.9963C37.0537 11.4882 113.36 3.03242 176.649 21.1918C208.254 30.2604 236.445 45.9247 254.683 72.1379C272.906 98.3297 281.351 135.282 273.019 187.263L275.981 187.737C284.399 135.218 275.928 97.4202 257.145 70.4245C238.378 43.4502 209.475 27.4895 177.476 18.3082C113.556 -0.0324383 36.613 8.51187 1.39413 11.0038L1.60587 13.9963Z"
        fill="#FFF379"
      />
    </svg>